<svg xmlns="http://www.w3.org/2000/svg" width="400" height="600" viewBox="0 0 400 600"><rect width="100%" height="100%" fill="#0d0f15"/><path fill="#999999" d="M86.84 296.16v10.81q.99 1.2 2.15 1.69t2.46.49q1.33 0 2.4-.48t1.83-1.5q.75-1.02 1.15-2.61t.4-3.8q0-3.97-1.32-5.74-1.32-1.78-3.78-1.78-1.67 0-2.92.77-1.24.76-2.37 2.15m0-17.86v13.77q1.46-1.53 3.23-2.43 1.77-.91 4.05-.91 2.1 0 3.78.83 1.68.82 2.86 2.36 1.19 1.54 1.82 3.72.64 2.19.64 4.91 0 2.94-.73 5.34t-2.08 4.1-3.25 2.64q-1.91.94-4.23.94-1.13 0-2.05-.22t-1.69-.62q-.78-.4-1.42-.98-.65-.57-1.24-1.28l-.25 1.62q-.15.61-.49.87t-.92.26h-3.84V278.3zm31.54 10.43q2.68 0 4.87.87 2.2.87 3.76 2.47 1.57 1.6 2.41 3.9.85 2.3.85 5.15 0 2.86-.85 5.17-.84 2.3-2.41 3.92-1.56 1.62-3.76 2.49-2.19.87-4.87.87-2.71 0-4.92-.87-2.2-.87-3.77-2.49-1.56-1.62-2.42-3.92-.86-2.31-.86-5.17 0-2.85.86-5.15t2.42-3.9q1.57-1.6 3.77-2.47 2.21-.87 4.92-.87m0 20.38q3 0 4.45-2.02 1.44-2.02 1.44-5.93 0-3.9-1.44-5.94-1.45-2.05-4.45-2.05-3.06 0-4.53 2.06t-1.47 5.93q0 3.88 1.47 5.91 1.47 2.04 4.53 2.04m27-20.38q2.68 0 4.87.87 2.2.87 3.76 2.47 1.57 1.6 2.41 3.9.85 2.3.85 5.15 0 2.86-.85 5.17-.84 2.3-2.41 3.92-1.56 1.62-3.76 2.49-2.19.87-4.87.87-2.7 0-4.91-.87t-3.78-2.49q-1.56-1.62-2.42-3.92-.85-2.31-.85-5.17 0-2.85.85-5.15.86-2.3 2.42-3.9 1.57-1.6 3.78-2.47t4.91-.87m0 20.38q3.01 0 4.45-2.02 1.45-2.02 1.45-5.93 0-3.9-1.45-5.94-1.44-2.05-4.45-2.05-3.06 0-4.53 2.06-1.46 2.06-1.46 5.93 0 3.88 1.46 5.91 1.47 2.04 4.53 2.04m16.33-30.81h5.8v20h1.09q.58 0 .92-.16.34-.15.7-.62l5.99-7.4q.38-.49.83-.75.46-.26 1.19-.26h5.31l-7.49 8.95q-.8 1.06-1.74 1.62.49.36.88.83t.74 1.01l8.03 11.7h-5.24q-.68 0-1.17-.22-.49-.23-.82-.81l-6.16-9.15q-.33-.54-.68-.7t-1.06-.16h-1.32v11.04h-5.8zm36.73 10.81h5.83v24.11h-5.83zm6.63-7.03q0 .75-.31 1.41-.3.66-.81 1.15-.5.5-1.19.79-.68.29-1.45.29-.75 0-1.42-.29t-1.17-.79q-.49-.49-.78-1.15-.3-.66-.3-1.41 0-.77.3-1.45.29-.69.78-1.18.5-.49 1.17-.79.67-.29 1.42-.29.77 0 1.45.29.69.3 1.19.79.51.49.81 1.18.31.68.31 1.45M216 313.22h-5.81v-24.11h3.55q1.13 0 1.48 1.06l.38 1.78q.63-.7 1.32-1.29.7-.59 1.48-1.01.79-.42 1.7-.67.9-.25 1.98-.25 2.28 0 3.75 1.24 1.47 1.23 2.2 3.27.56-1.19 1.41-2.05.84-.86 1.85-1.4t2.15-.8 2.3-.26q1.99 0 3.54.61t2.61 1.79 1.61 2.87.55 3.87v15.35h-5.8v-15.35q0-2.3-1.01-3.46-1.01-1.17-2.96-1.17-.89 0-1.66.31-.76.31-1.34.88-.57.58-.9 1.45t-.33 1.99v15.35h-5.83v-15.35q0-2.42-.98-3.52-.97-1.11-2.85-1.11-1.27 0-2.36.63-1.09.62-2.03 1.7zm46.29-6.23v-4.06q-2.51.11-4.23.43t-2.75.81q-1.03.5-1.48 1.15-.45.66-.45 1.44 0 1.53.91 2.18.9.66 2.36.66 1.79 0 3.09-.65 1.3-.64 2.55-1.96m-12.27-12.66-1.03-1.86q4.16-3.81 10.01-3.81 2.12 0 3.78.7 1.67.69 2.82 1.92 1.16 1.24 1.75 2.95.6 1.72.6 3.76v15.23h-2.63q-.82 0-1.27-.25-.44-.24-.7-1l-.52-1.73q-.92.82-1.79 1.44-.86.62-1.8 1.05-.94.42-2.01.64-1.07.23-2.37.23-1.52 0-2.82-.42-1.29-.41-2.23-1.23t-1.46-2.04q-.51-1.23-.51-2.85 0-.91.3-1.82.31-.9 1-1.73.7-.82 1.8-1.55 1.1-.72 2.71-1.27 1.61-.54 3.75-.88t4.89-.41v-1.41q0-2.42-1.03-3.58-1.04-1.17-2.99-1.17-1.41 0-2.34.33-.92.33-1.63.74-.7.42-1.28.74-.58.33-1.28.33-.61 0-1.04-.31-.42-.32-.68-.74m32.2 6.25q1.08 0 1.88-.3.8-.29 1.33-.81.52-.51.79-1.24.28-.73.28-1.6 0-1.79-1.07-2.83-1.07-1.05-3.21-1.05t-3.21 1.05q-1.07 1.04-1.07 2.83 0 .85.27 1.57.27.73.8 1.26t1.34.82q.81.3 1.87.3m6.55 13.72q0-.7-.42-1.15t-1.15-.69q-.73-.25-1.7-.37-.98-.12-2.07-.17-1.09-.06-2.26-.11-1.16-.05-2.27-.19-.96.54-1.56 1.27t-.6 1.69q0 .64.32 1.19t1.01.95 1.8.62q1.1.23 2.7.23 1.62 0 2.8-.25 1.17-.25 1.94-.68.76-.44 1.11-1.03.35-.6.35-1.31m-1.15-24.37h6.94v2.16q0 1.04-1.25 1.27l-2.16.4q.49 1.25.49 2.73 0 1.78-.72 3.23-.71 1.44-1.98 2.46-1.27 1.01-3 1.56-1.72.55-3.72.55-.71 0-1.36-.07-.66-.07-1.3-.19-1.13.68-1.13 1.53 0 .73.67 1.07t1.78.48q1.1.14 2.51.18 1.41.03 2.89.15t2.89.41 2.52.93q1.1.63 1.77 1.73.67 1.09.67 2.8 0 1.6-.78 3.11-.79 1.5-2.28 2.68-1.5 1.17-3.67 1.89-2.17.71-4.95.71-2.72 0-4.74-.53-2.02-.52-3.36-1.41-1.34-.88-2-2.03t-.66-2.39q0-1.7 1.02-2.84t2.81-1.82q-.96-.49-1.53-1.31-.56-.83-.56-2.17 0-.54.2-1.11.2-.58.59-1.14.38-.57.97-1.07.59-.51 1.39-.91-1.83-.98-2.88-2.63-1.05-1.64-1.05-3.85 0-1.79.72-3.23.72-1.45 2-2.47t3.03-1.56 3.82-.54q1.55 0 2.91.31 1.37.32 2.49.93m15.18 8.46h10.96q0-1.13-.32-2.13-.32-.99-.95-1.75-.64-.75-1.61-1.18-.98-.44-2.27-.44-2.52 0-3.96 1.44-1.45 1.43-1.85 4.06m14.81 3.5h-14.92q.14 1.86.65 3.21.52 1.35 1.37 2.23.84.88 2.01 1.32 1.16.43 2.57.43t2.43-.32q1.02-.33 1.79-.73.76-.4 1.34-.73.57-.33 1.11-.33.73 0 1.09.54l1.66 2.11q-.96 1.13-2.16 1.9-1.2.76-2.5 1.22-1.31.46-2.66.64-1.35.19-2.62.19-2.51 0-4.67-.83-2.17-.84-3.76-2.47-1.6-1.63-2.52-4.04-.91-2.41-.91-5.58 0-2.47.79-4.64.8-2.18 2.3-3.79 1.49-1.61 3.64-2.55t4.85-.94q2.28 0 4.21.73 1.92.73 3.31 2.13t2.17 3.43q.79 2.03.79 4.64 0 1.32-.28 1.77-.28.46-1.08.46"/></svg>